<svg width="34" height="34" viewBox="0 0 34 34" fill="none" xmlns="http://www.w3.org/2000/svg">
<path d="M32.3102 8.81481C30.2912 8.81273 28.3554 8.01603 26.9277 6.59954C25.5 5.18305 24.697 3.26248 24.6949 1.25926C24.6949 0.925283 24.5611 0.604985 24.3231 0.368828C24.0851 0.132672 23.7622 0 23.4256 0H17.0795C16.7428 0 16.42 0.132672 16.182 0.368828C15.944 0.604985 15.8102 0.925283 15.8102 1.25926V22.037C15.81 22.6004 15.6574 23.1533 15.3683 23.6382C15.0793 24.1231 14.6644 24.5221 14.1669 24.7937C13.6695 25.0653 13.1077 25.1995 12.5402 25.1823C11.9726 25.1651 11.4202 24.9971 10.9404 24.6958C10.4606 24.3946 10.071 23.9711 9.81239 23.4696C9.55375 22.9681 9.43549 22.4069 9.46992 21.8447C9.50436 21.2824 9.69025 20.7395 10.0082 20.2728C10.3261 19.806 10.7645 19.4325 11.2775 19.1911C11.4945 19.0889 11.6778 18.9277 11.8062 18.7263C11.9345 18.5248 12.0026 18.2914 12.0025 18.0531V11.3333C12.0026 11.1493 11.962 10.9674 11.8836 10.8006C11.8052 10.6338 11.6909 10.486 11.5487 10.3678C11.4065 10.2495 11.2399 10.1636 11.0607 10.1161C10.8814 10.0687 10.6939 10.0608 10.5112 10.093C4.84884 11.0941 0.579468 16.2287 0.579468 22.037C0.579468 25.2098 1.84983 28.2526 4.11108 30.4961C6.37234 32.7396 9.43926 34 12.6372 34C15.8351 34 18.902 32.7396 21.1632 30.4961C23.4245 28.2526 24.6949 25.2098 24.6949 22.037V15.7864C27.0456 17.0032 29.6588 17.6357 32.3102 17.6296C32.6469 17.6296 32.9697 17.497 33.2077 17.2608C33.4457 17.0246 33.5795 16.7043 33.5795 16.3704V10.0741C33.5795 9.7401 33.4457 9.4198 33.2077 9.18364C32.9697 8.94749 32.6469 8.81481 32.3102 8.81481ZM31.041 15.0544C28.5607 14.8364 26.1856 13.9581 24.1665 12.5123C23.9768 12.3769 23.753 12.2962 23.5199 12.279C23.2868 12.2617 23.0535 12.3087 22.8456 12.4147C22.6377 12.5207 22.4633 12.6815 22.3417 12.8796C22.2201 13.0776 22.156 13.3051 22.1564 13.537V22.037C22.1564 24.5419 21.1535 26.9441 19.3683 28.7153C17.5831 30.4864 15.1618 31.4815 12.6372 31.4815C10.1125 31.4815 7.69125 30.4864 5.90605 28.7153C4.12085 26.9441 3.11793 24.5419 3.11793 22.037C3.11793 17.9602 5.75793 14.3036 9.46408 12.9704V17.3258C8.6436 17.8697 7.97915 18.6153 7.53549 19.4897C7.09182 20.3642 6.88408 21.3378 6.9325 22.3157C6.98093 23.2935 7.28388 24.2422 7.81182 25.0693C8.33976 25.8964 9.07467 26.5737 9.94494 27.0352C10.8152 27.4967 11.7911 27.7266 12.7776 27.7025C13.7641 27.6784 14.7274 27.4012 15.5738 26.8978C16.4201 26.3945 17.1206 25.6821 17.6069 24.8303C18.0932 23.9784 18.3488 23.0161 18.3487 22.037V2.51852H22.2357C22.5212 4.73652 23.5407 6.79775 25.1343 8.37885C26.7279 9.95994 28.8054 10.9714 31.041 11.2546V15.0544Z" fill="#222831"/>
</svg>
