<svg width="38" height="38" viewBox="0 0 38 38" fill="none" xmlns="http://www.w3.org/2000/svg">
<path d="M18.985 10.2227C17.252 10.2227 15.5579 10.7366 14.1169 11.6994C12.676 12.6622 11.5529 14.0307 10.8897 15.6318C10.2265 17.2329 10.053 18.9947 10.3911 20.6944C10.7292 22.3942 11.5637 23.9555 12.7891 25.1809C14.0145 26.4063 15.5758 27.2408 17.2756 27.5789C18.9753 27.917 20.7371 27.7435 22.3382 27.0803C23.9393 26.4171 25.3078 25.294 26.2706 23.8531C27.2334 22.4121 27.7473 20.718 27.7473 18.985C27.7449 16.6618 26.8209 14.4345 25.1782 12.7918C23.5355 11.1491 21.3082 10.2251 18.985 10.2227ZM18.985 24.8265C17.8297 24.8265 16.7003 24.4839 15.7396 23.8421C14.779 23.2002 14.0303 22.2879 13.5881 21.2205C13.146 20.1531 13.0303 18.9785 13.2557 17.8454C13.4811 16.7122 14.0375 15.6714 14.8544 14.8544C15.6714 14.0375 16.7122 13.4811 17.8454 13.2557C18.9785 13.0303 20.1531 13.146 21.2205 13.5881C22.2879 14.0303 23.2002 14.779 23.8421 15.7396C24.4839 16.7003 24.8265 17.8297 24.8265 18.985C24.8265 20.5343 24.2111 22.0201 23.1156 23.1156C22.0201 24.2111 20.5343 24.8265 18.985 24.8265ZM27.7473 0H10.2227C7.51236 0.00289928 4.91386 1.08086 2.99736 2.99736C1.08086 4.91386 0.00289928 7.51236 0 10.2227V27.7473C0.00289928 30.4576 1.08086 33.0561 2.99736 34.9726C4.91386 36.8891 7.51236 37.9671 10.2227 37.97H27.7473C30.4576 37.9671 33.0561 36.8891 34.9726 34.9726C36.8891 33.0561 37.9671 30.4576 37.97 27.7473V10.2227C37.9671 7.51236 36.8891 4.91386 34.9726 2.99736C33.0561 1.08086 30.4576 0.00289928 27.7473 0ZM35.0492 27.7473C35.0492 29.6839 34.2799 31.5412 32.9105 32.9105C31.5412 34.2799 29.6839 35.0492 27.7473 35.0492H10.2227C8.2861 35.0492 6.42883 34.2799 5.05945 32.9105C3.69008 31.5412 2.92077 29.6839 2.92077 27.7473V10.2227C2.92077 8.2861 3.69008 6.42883 5.05945 5.05945C6.42883 3.69008 8.2861 2.92077 10.2227 2.92077H27.7473C29.6839 2.92077 31.5412 3.69008 32.9105 5.05945C34.2799 6.42883 35.0492 8.2861 35.0492 10.2227V27.7473ZM30.6681 9.4925C30.6681 9.92576 30.5396 10.3493 30.2989 10.7095C30.0582 11.0698 29.7161 11.3505 29.3158 11.5163C28.9155 11.6821 28.4751 11.7255 28.0501 11.641C27.6252 11.5565 27.2349 11.3478 26.9285 11.0415C26.6222 10.7351 26.4135 10.3448 26.329 9.91986C26.2445 9.49493 26.2879 9.05448 26.4537 8.6542C26.6195 8.25393 26.9002 7.9118 27.2605 7.6711C27.6207 7.4304 28.0442 7.30192 28.4775 7.30192C29.0585 7.30192 29.6157 7.53272 30.0265 7.94353C30.4373 8.35434 30.6681 8.91152 30.6681 9.4925Z" fill="#222831"/>
</svg>
