<svg width="36" height="24" viewBox="0 0 36 24" fill="none" xmlns="http://www.w3.org/2000/svg">
<path d="M35.681 11.5044C35.6291 11.3873 34.3729 8.60033 31.58 5.80745C27.8586 2.0861 23.1584 0.11937 17.9849 0.11937C12.8115 0.11937 8.11126 2.0861 4.38991 5.80745C1.59704 8.60033 0.33483 11.3917 0.28885 11.5044C0.221384 11.6562 0.186523 11.8204 0.186523 11.9865C0.186523 12.1525 0.221384 12.3168 0.28885 12.4685C0.340762 12.5857 1.59704 15.3711 4.38991 18.164C8.11126 21.8839 12.8115 23.8506 17.9849 23.8506C23.1584 23.8506 27.8586 21.8839 31.58 18.164C34.3729 15.3711 35.6291 12.5857 35.681 12.4685C35.7485 12.3168 35.7834 12.1525 35.7834 11.9865C35.7834 11.8204 35.7485 11.6562 35.681 11.5044ZM17.9849 21.4775C13.4196 21.4775 9.43131 19.8178 6.1297 16.5458C4.77501 15.1986 3.62248 13.6624 2.70795 11.985C3.62223 10.3074 4.77479 8.77116 6.1297 7.42415C9.43131 4.1522 13.4196 2.49249 17.9849 2.49249C22.5502 2.49249 26.5386 4.1522 29.8402 7.42415C31.1975 8.77083 32.3526 10.3071 33.2694 11.985C32.2 13.9814 27.5412 21.4775 17.9849 21.4775ZM17.9849 4.86562C16.5769 4.86562 15.2004 5.28316 14.0296 6.06545C12.8589 6.84774 11.9464 7.95963 11.4075 9.26053C10.8687 10.5614 10.7277 11.9929 11.0024 13.3739C11.2771 14.7549 11.9551 16.0235 12.9508 17.0192C13.9465 18.0148 15.215 18.6929 16.596 18.9676C17.9771 19.2423 19.4085 19.1013 20.7094 18.5624C22.0103 18.0236 23.1222 17.1111 23.9045 15.9403C24.6868 14.7695 25.1043 13.3931 25.1043 11.985C25.1024 10.0974 24.3517 8.28772 23.0169 6.953C21.6822 5.61829 19.8725 4.86758 17.9849 4.86562ZM17.9849 16.7312C17.0462 16.7312 16.1286 16.4529 15.3481 15.9314C14.5676 15.4098 13.9592 14.6686 13.6 13.8013C13.2408 12.934 13.1468 11.9797 13.3299 11.059C13.513 10.1384 13.9651 9.29266 14.6288 8.62889C15.2926 7.96511 16.1383 7.51308 17.059 7.32994C17.9797 7.14681 18.934 7.2408 19.8013 7.60003C20.6685 7.95926 21.4098 8.5676 21.9313 9.34812C22.4528 10.1286 22.7312 11.0463 22.7312 11.985C22.7312 13.2438 22.2311 14.451 21.3411 15.3411C20.451 16.2312 19.2437 16.7312 17.9849 16.7312Z" fill="#222831"/>
</svg>
