<svg width="38" height="38" viewBox="0 0 38 38" fill="none" xmlns="http://www.w3.org/2000/svg">
<path d="M18.985 0C15.2301 0 11.5596 1.11345 8.43751 3.19955C5.31544 5.28565 2.88208 8.2507 1.44516 11.7198C0.00822588 15.1888 -0.36774 19.0061 0.3648 22.6888C1.09734 26.3715 2.90549 29.7543 5.56059 32.4094C8.21568 35.0645 11.5985 36.8727 15.2812 37.6052C18.9639 38.3377 22.7812 37.9618 26.2502 36.5248C29.7193 35.0879 32.6844 32.6546 34.7705 29.5325C36.8566 26.4104 37.97 22.7399 37.97 18.985C37.9647 13.9515 35.9628 9.12567 32.4036 5.56645C28.8443 2.00722 24.0185 0.00531547 18.985 0ZM20.4454 34.9817V23.3661H24.8265C25.2139 23.3661 25.5853 23.2123 25.8592 22.9384C26.1331 22.6645 26.2869 22.2931 26.2869 21.9058C26.2869 21.5184 26.1331 21.147 25.8592 20.8731C25.5853 20.5992 25.2139 20.4454 24.8265 20.4454H20.4454V16.0642C20.4454 15.2896 20.7531 14.5467 21.3009 13.9989C21.8486 13.4512 22.5915 13.1435 23.3662 13.1435H26.2869C26.6742 13.1435 27.0457 12.9896 27.3196 12.7157C27.5934 12.4418 27.7473 12.0704 27.7473 11.6831C27.7473 11.2958 27.5934 10.9243 27.3196 10.6504C27.0457 10.3766 26.6742 10.2227 26.2869 10.2227H23.3662C21.8169 10.2227 20.3311 10.8381 19.2356 11.9336C18.1401 13.0291 17.5246 14.515 17.5246 16.0642V20.4454H13.1435C12.7561 20.4454 12.3847 20.5992 12.1108 20.8731C11.8369 21.147 11.6831 21.5184 11.6831 21.9058C11.6831 22.2931 11.8369 22.6645 12.1108 22.9384C12.3847 23.2123 12.7561 23.3661 13.1435 23.3661H17.5246V34.9817C13.4078 34.6059 9.5943 32.6574 6.87739 29.5417C4.16048 26.4259 2.74931 22.3827 2.93742 18.253C3.12552 14.1234 4.89841 10.2252 7.88732 7.36929C10.8762 4.51343 14.8511 2.91974 18.985 2.91974C23.119 2.91974 27.0938 4.51343 30.0827 7.36929C33.0716 10.2252 34.8445 14.1234 35.0326 18.253C35.2207 22.3827 33.8095 26.4259 31.0926 29.5417C28.3757 32.6574 24.5622 34.6059 20.4454 34.9817Z" fill="#222831"/>
</svg>
