<svg width="31" height="24" viewBox="0 0 31 24" fill="none" xmlns="http://www.w3.org/2000/svg">
<path d="M29.6641 0.11937H1.18656C0.871867 0.11937 0.57006 0.244382 0.347536 0.466906C0.125012 0.689429 0 0.991236 0 1.30593V21.4775C0 22.1069 0.250025 22.7105 0.695072 23.1555C1.14012 23.6006 1.74373 23.8506 2.37313 23.8506H28.4775C29.1069 23.8506 29.7105 23.6006 30.1556 23.1555C30.6006 22.7105 30.8506 22.1069 30.8506 21.4775V1.30593C30.8506 0.991236 30.7256 0.689429 30.5031 0.466906C30.2806 0.244382 29.9788 0.11937 29.6641 0.11937ZM15.4253 12.7488L4.23751 2.49249H26.6131L15.4253 12.7488ZM11.081 11.985L2.37313 19.9661V4.00388L11.081 11.985ZM12.8371 13.5943L14.617 15.2332C14.8359 15.4342 15.1222 15.5457 15.4194 15.5457C15.7165 15.5457 16.0029 15.4342 16.2218 15.2332L18.0016 13.5943L26.6042 21.4775H4.23751L12.8371 13.5943ZM19.7696 11.985L28.4775 4.0024V19.9676L19.7696 11.985Z" fill="#222831"/>
</svg>
